<mxfile host="app.diagrams.net" modified="2020-08-09T12:28:12.870Z" agent="5.0 (Windows NT 10.0; Win64; x64) AppleWebKit/537.36 (KHTML, like Gecko) Chrome/84.0.4147.105 Safari/537.36 Edg/84.0.522.52" etag="PX4uDHzn47ooQpPvKrWh" version="13.5.9" type="github">
  <diagram id="prtHgNgQTEPvFCAcTncT" name="Page-1">
    <mxGraphModel dx="1038" dy="532" grid="1" gridSize="10" guides="1" tooltips="1" connect="1" arrows="1" fold="1" page="1" pageScale="1" pageWidth="827" pageHeight="1169" math="0" shadow="0">
      <root>
        <mxCell id="0" />
        <mxCell id="1" parent="0" />
        <mxCell id="dNxyNK7c78bLwvsdeMH5-11" value="Values Coding" style="swimlane;html=1;startSize=20;horizontal=1;containerType=tree;glass=0;textOpacity=10;whiteSpace=wrap;" parent="1" vertex="1">
          <mxGeometry x="40" y="80" width="710" height="770" as="geometry" />
        </mxCell>
        <mxCell id="wTvHSEy84LiGymbCWiN8-1" value="&lt;br&gt;&lt;div&gt;&lt;b&gt;Question 1:&amp;nbsp;&lt;/b&gt;&lt;span&gt;&amp;nbsp;&lt;/span&gt;&lt;/div&gt;&lt;div&gt;&lt;span&gt;LWMA&amp;nbsp;is&amp;nbsp;also&amp;nbsp;in&amp;nbsp;charge&amp;nbsp;of&amp;nbsp;reporting&amp;nbsp;and&amp;nbsp;other&amp;nbsp;tasks.&amp;nbsp;&lt;/span&gt;&lt;/div&gt;&lt;div&gt;&lt;span&gt;The&amp;nbsp;ministry&amp;nbsp;needs&amp;nbsp;to&amp;nbsp;organize&amp;nbsp;better,&amp;nbsp;and&amp;nbsp;the&amp;nbsp;responsibilities&amp;nbsp;&lt;/span&gt;&lt;/div&gt;&lt;div&gt;&lt;span&gt;need&amp;nbsp;to&amp;nbsp;be&amp;nbsp;clearer&amp;nbsp;because&amp;nbsp;some&amp;nbsp;shared.&amp;nbsp;It&amp;nbsp;is&amp;nbsp;not&amp;nbsp;clearly&amp;nbsp;defined&amp;nbsp;&lt;/span&gt;&lt;/div&gt;&lt;div&gt;&lt;span&gt;who&amp;nbsp;has&amp;nbsp;responsibility&amp;nbsp;because&amp;nbsp;there&amp;nbsp;is&amp;nbsp;no&amp;nbsp;single&amp;nbsp;head&amp;nbsp;in&amp;nbsp;charge&amp;nbsp;&lt;/span&gt;&lt;/div&gt;&lt;div&gt;&lt;span&gt;thus&amp;nbsp;causing&amp;nbsp;a&amp;nbsp;lot&amp;nbsp;of&amp;nbsp;inefficiency.&amp;nbsp;There&amp;nbsp;are&amp;nbsp;multiple&amp;nbsp;people&amp;nbsp;in&amp;nbsp;&lt;/span&gt;&lt;/div&gt;&lt;div&gt;&lt;span&gt;charge&amp;nbsp;leads&amp;nbsp;to&amp;nbsp;conflicts&amp;nbsp;in&amp;nbsp;priority&amp;nbsp;and&amp;nbsp;responsibility.&lt;/span&gt;&lt;/div&gt;&lt;div&gt;&lt;span&gt;&lt;br&gt;&lt;/span&gt;&lt;/div&gt;&lt;div&gt;&lt;span&gt;&lt;b&gt;Question 2:&amp;nbsp;&amp;nbsp;&lt;/b&gt;&lt;/span&gt;&lt;/div&gt;The official answer is that the LWMA works with the ministry by&amp;nbsp;&lt;br&gt;coordinating regularly and updating each other. The reality is that &lt;br&gt;there is a problem with leadership. There needs to be one leader&lt;br&gt;&amp;nbsp;who provides a clear waste management strategy and who has &lt;br&gt;control. A designated group should be in charge of the whole, so&lt;br&gt;&amp;nbsp;everyone listens to one person rather than depending on separate&lt;br&gt;&amp;nbsp;people because everyone has different preferences. One of the&lt;br&gt;&amp;nbsp;problems is that the LWMA and MEECC do not coordinate with&lt;br&gt;&amp;nbsp;external parties. The ministry and LWMA’s preferences for &lt;br&gt;strategies and operations are affected by external factors. For &lt;br&gt;example:&amp;nbsp;when trying to get things done, the agenda is influenced &lt;br&gt;by big projects since that’s where the money is. The LWMA has to&lt;br&gt;&amp;nbsp;go along with the big projects even if it interrupts project the &lt;br&gt;LWMA because the external parties provide a limited window so&lt;br&gt;&amp;nbsp;other projects get pushed aside or delayed.&lt;br&gt;&lt;br&gt;&lt;br&gt;&lt;table border=&quot;0&quot; cellpadding=&quot;0&quot; cellspacing=&quot;0&quot; width=&quot;783&quot; style=&quot;border-collapse: collapse ; width: 587pt&quot;&gt;&lt;tbody&gt;&lt;tr style=&quot;height: 115.2pt&quot;&gt;  &lt;td height=&quot;154&quot; class=&quot;xl65&quot; width=&quot;783&quot; style=&quot;height: 115.2pt ; width: 587pt&quot;&gt;&lt;/td&gt;&lt;/tr&gt;&lt;/tbody&gt;&lt;/table&gt;" style="rounded=0;html=1;horizontal=1;whiteSpace=wrap;align=left;" vertex="1" parent="dNxyNK7c78bLwvsdeMH5-11">
          <mxGeometry y="20" width="360" height="750" as="geometry" />
        </mxCell>
        <mxCell id="wTvHSEy84LiGymbCWiN8-2" value="" style="rounded=0;whiteSpace=wrap;html=1;" vertex="1" parent="dNxyNK7c78bLwvsdeMH5-11">
          <mxGeometry x="360" y="20" width="350" height="750" as="geometry" />
        </mxCell>
        <mxCell id="wTvHSEy84LiGymbCWiN8-4" style="edgeStyle=orthogonalEdgeStyle;rounded=0;orthogonalLoop=1;jettySize=auto;html=1;exitX=0.5;exitY=1;exitDx=0;exitDy=0;" edge="1" parent="dNxyNK7c78bLwvsdeMH5-11" source="wTvHSEy84LiGymbCWiN8-2" target="wTvHSEy84LiGymbCWiN8-2">
          <mxGeometry relative="1" as="geometry" />
        </mxCell>
      </root>
    </mxGraphModel>
  </diagram>
</mxfile>
